<svg xmlns="http://www.w3.org/2000/svg" viewBox="0 0 24 24" width="24" height="24">
  <circle cx="12" cy="12" r="11" fill="#F7931A"/>
  <path d="M17.11 9.618a3.478 3.478 0 0 0-1.488-2.653c-0.922-0.658-2.066-0.864-3.358-0.428v-1.974h-1.5v1.93c-0.384 0-0.778 0.016-1.174 0.046v-1.976h-1.5v1.988a41.412 41.412 0 0 0-0.9 0.088v0.006h0v-0.006l-2.084 0.2v1.604s1.1-0.2 1.088 0c0.608 0 0.802 0.35 0.85 0.65v2.712c0.044 0 0.102 0.004 0.172 0.018a0.903 0.903 0 0 1-0.17-0.018v3.8c-0.052 0.182-0.2 0.47-0.626 0.47 0.016 0.014-1.088-0.022-1.088-0.022l-0.2 1.8 1.968 0c0.366 0 0.724 0.002 1.072 0.002v2h1.5v-1.974c0.406 0.01 0.8 0.016 1.174 0.014v1.96h1.5v-1.988c2.252-0.116 3.846-0.844 4.246-2.764 0.324-1.544-0.058-2.424-1.09-3.028a2.168 2.168 0 0 0 0.714-1.246zM9.59 14.55v-3.9h3.2c0.854 0 3.068-0.252 3.068 1.95 0 2.068-2.052 1.95-3.268 1.95h-3zM9.59 9.09v-3.55h2.9c0.744 0 2.664-0.206 2.664 1.774 0 1.888-1.92 1.776-2.864 1.776h-2.7z" fill="white"/>
</svg>
