<svg xmlns="http://www.w3.org/2000/svg" viewBox="0 0 32 32" width="32" height="32">
  <g fill="none" fill-rule="evenodd">
    <circle cx="16" cy="16" r="16" fill="#C2A633"/>
    <path fill="#FFF" fill-rule="nonzero" d="M13.248 14.61h4.314v2.286h-4.314v4.818h2.721c1.077 0 1.958-.145 2.644-.437.686-.291 1.224-.694 1.615-1.21a4.4 4.4 0 0 0 .796-1.815 11.4 11.4 0 0 0 .21-2.252 9.99 9.99 0 0 0-.243-2.252 4.304 4.304 0 0 0-.847-1.815c-.408-.51-.958-.911-1.648-1.203-.69-.291-1.56-.437-2.608-.437h-2.64v4.316zm-2.007-6.262h4.97c1.608 0 2.978.242 4.109.728 1.13.485 2.04 1.118 2.73 1.9.69.781 1.187 1.675 1.491 2.682.304 1.007.456 2.026.456 3.057 0 1.234-.171 2.328-.514 3.284-.342.956-.863 1.766-1.562 2.429-.7.663-1.575 1.169-2.625 1.518-1.05.35-2.275.524-3.673.524h-5.382V8.348z"/>
  </g>
</svg>
