<svg xmlns="http://www.w3.org/2000/svg" viewBox="0 0 32 32" width="32" height="32">
  <circle cx="16" cy="16" r="16" fill="#3CBC98"/>
  <path fill="#FFF" d="M16.11 5.82c-3.26.06-6.53.85-7.33 1.24-.65.43-1.42 1.98-1.31 5.33.11 3.35 1.44 5.2 1.93 5.52.41.27 3.86 1.23 7.11 1.3 3.26-.07 6.7-1.03 7.11-1.3.49-.32 1.82-2.17 1.93-5.52.11-3.35-.66-4.9-1.31-5.33-.8-.39-4.07-1.18-7.33-1.24h-.8z"/>
  <path fill="#3CBC98" d="M19.93 12.35c0 1.3-.87 1.24-1.95 1.24s-1.95.06-1.95-1.24c0-1.3.87-2.36 1.95-2.36s1.95 1.06 1.95 2.36zM14.16 12.35c0 1.3-.87 1.24-1.95 1.24s-1.95.06-1.95-1.24c0-1.3.87-2.36 1.95-2.36s1.95 1.06 1.95 2.36z"/>
  <path fill="#3CBC98" d="M20.01 11.28a1.85 1.85 0 11-3.7 0 1.85 1.85 0 013.7 0zM14.17 11.28a1.85 1.85 0 11-3.7 0 1.85 1.85 0 013.7 0z"/>
  <path fill="#3CBC98" d="M19.37 11.64a.92.92 0 11-1.84 0 .92.92 0 011.84 0zM13.52 11.64a.92.92 0 11-1.84 0 .92.92 0 011.84 0z"/>
  <path fill="#3CBC98" d="M19.94 18.45c-.45 1.39-2.69 2.1-4.34 2.1s-3.9-.71-4.34-2.1c-.45-1.39.78-1.94 4.34-1.94s4.78.55 4.34 1.94z"/>
</svg>
